<svg xmlns="http://www.w3.org/2000/svg" width="150.41" height="22" viewBox="0 0 150.41 22"><title>logo</title><g id="レイヤー_2" data-name="レイヤー 2"><g id="レイヤー_1-2" data-name="レイヤー 1"><path d="M11,10.67h8.06v.64a13.52,13.52,0,0,1-.52,3.89,8.5,8.5,0,0,1-1.7,2.93,8.86,8.86,0,0,1-6.91,3.05,9.46,9.46,0,0,1-7-2.95A9.78,9.78,0,0,1,0,11.11a9.77,9.77,0,0,1,3-7.2,9.83,9.83,0,0,1,7.22-3,9.89,9.89,0,0,1,4.26.93,12.26,12.26,0,0,1,3.73,3l-2.1,2a7.12,7.12,0,0,0-5.84-3.2A7,7,0,0,0,5.05,5.86,7.09,7.09,0,0,0,3,11.11a6.89,6.89,0,0,0,2.34,5.36,6.93,6.93,0,0,0,4.73,2A5.85,5.85,0,0,0,13.92,17a5.19,5.19,0,0,0,1.93-3.53H11Z"/><path d="M25.17,1.33V13.06A6.46,6.46,0,0,0,26,16.74a4,4,0,0,0,3.44,1.68,4,4,0,0,0,3.46-1.68,6.36,6.36,0,0,0,.82-3.68V1.33h2.94V13.87A7.27,7.27,0,0,1,24.15,19a7,7,0,0,1-1.92-5.08V1.33Z"/><path d="M44.27,1.33V20.81h-3V1.33Z"/><path d="M49,20.81V1.33H53a14.74,14.74,0,0,1,4.64.58A8.55,8.55,0,0,1,61,3.84a9.32,9.32,0,0,1,3,7.23,9.24,9.24,0,0,1-3.14,7.27,9.19,9.19,0,0,1-3.31,1.93,15.16,15.16,0,0,1-4.58.54Zm2.94-2.76h1.32a11,11,0,0,0,3.3-.42,6.69,6.69,0,0,0,4.54-6.56,6.76,6.76,0,0,0-2.14-5.2,8.13,8.13,0,0,0-5.7-1.78H51.89Z"/><path d="M78,4.09H70.14V8.77h7.59v2.77H70.14v6.51H78v2.76H67.2V1.33H78Z"/><path d="M86.83,1.33V18.05h5.73v2.76H83.88V1.33Z"/><path d="M98.8,1.33V20.81H95.86V1.33Z"/><path d="M103,20.81V0l14.21,14.87V1.33h2.94V22L105.91,7.17V20.81Z"/><path d="M135,4.09h-7.81V8.77h7.58v2.77h-7.58v6.51H135v2.76H124.27V1.33H135Z"/><path d="M149.91,4.23l-2.39,1.41a4,4,0,0,0-1.27-1.51,3,3,0,0,0-1.63-.41,3,3,0,0,0-2,.7,2.13,2.13,0,0,0-.81,1.71c0,1,.71,1.72,2.12,2.3l1.95.8a8.38,8.38,0,0,1,3.47,2.34A5.28,5.28,0,0,1,150.41,15a5.93,5.93,0,0,1-1.79,4.44,6.13,6.13,0,0,1-4.48,1.77A6,6,0,0,1,140,19.66a6.94,6.94,0,0,1-2-4.22l3-.66a5.07,5.07,0,0,0,.7,2.37,3.35,3.35,0,0,0,4.94.34,3.16,3.16,0,0,0,.91-2.33,3.11,3.11,0,0,0-.16-1,2.51,2.51,0,0,0-.49-.87,3.63,3.63,0,0,0-.87-.75,8.14,8.14,0,0,0-1.26-.66l-1.88-.78q-4-1.7-4-4.95a4.67,4.67,0,0,1,1.68-3.67A6,6,0,0,1,144.65,1,5.83,5.83,0,0,1,149.91,4.23Z"/></g></g></svg>