<svg xmlns="http://www.w3.org/2000/svg" viewBox="0 0 274.42 39.66"><defs><style>.cls-1{fill:#004098;}.cls-2{fill:#fff;}.cls-3{fill:#231815;}</style></defs>
<title>アセット 4</title><g id="レイヤー_2" data-name="レイヤー 2"><g id="mid"><path class="cls-1" d="M39.65,38A1.68,1.68,0,0,1,38,39.65H1.67A1.68,1.68,0,0,1,0,38V1.67A1.67,1.67,0,0,1,1.67,0H38a1.68,1.68,0,0,1,1.67,1.67V38"/><polyline class="cls-2" points="10.06 3.81 0.89 16.36 9.14 16.36 18.15 3.81 10.06 3.81"/><polyline class="cls-2" points="16.41 9.83 16.41 16.36 23.69 16.36 23.69 34.21 30.97 34.21 30.97 16.36 37.84 16.36 37.84 9.83 16.41 9.83"/><polyline class="cls-3" points="75.39 3.77 55.53 3.77 55.53 8.45 62.95 8.45 62.95 34.21 68.06 34.21 68.06 8.45 75.39 8.45 75.39 3.77"/><path class="cls-3" d="M82.59,30.16a5.77,5.77,0,1,1,5.76-5.77,5.77,5.77,0,0,1-5.76,5.77m0-16.17A10.43,10.43,0,1,0,93.05,24.42,10.43,10.43,0,0,0,82.62,14Z"/><path class="cls-3" d="M118.28,30.42a5.57,5.57,0,0,1-5.42-5.87,5.64,5.64,0,0,1,5.51-5.87,5.87,5.87,0,0,1-.09,11.74m5.88-15.83v1.36c.1-.33.06.53-.38.09-4.85-2.67-8.08-1.51-8.08-1.51a10.34,10.34,0,0,0-7.61,10.07,10,10,0,0,0,6.32,9.64s4.26,2.18,9.38-1.42c0,0,.29-.15.33,0l0,1.5.11-.07h4.3V14.59Z"/><path class="cls-3" d="M102.11,15.45c-.86.76-1.06.71-1.06.71l-.12-1.47-.23,0-4.21,0V34.21H101V23.67s-.19-2.9,1.78-4.22c0,0,1-1,4-.45l1.44-4c-3.1-1.89-6.08.47-6.08.47"/><path class="cls-3" d="M245.32,26.62a3.72,3.72,0,0,1-2,3.33,5,5,0,0,1-4.65-.15A3.41,3.41,0,0,1,237,26.68V14.53h-4.49V26.68s-.24,4.65,3,6.53a10.42,10.42,0,0,0,10.65.3s3.65-1.76,3.65-6.88v-12h-4.5v12"/><path class="cls-3" d="M219,30.16a5.77,5.77,0,1,1,5.76-5.77A5.77,5.77,0,0,1,219,30.16M219,14a10.43,10.43,0,1,0,10.43,10.43A10.43,10.43,0,0,0,219,14Z"/><path class="cls-3" d="M202.08,15.45c-.86.76-1.06.71-1.06.71V14.62l-.35,0-4.21,0V34.21h4.49V23.62l0,0s-.19-2.9,1.78-4.22c0,0,1-1,4-.45l1.44-4c-3.09-1.89-6.09.47-6.09.47"/><path class="cls-3" d="M180.33,22.3h7.14c-1,4.65-3.94,7.93-10.06,7.93a11.39,11.39,0,1,1,9.45-17.76L190.38,9a16.27,16.27,0,0,0-29.24,9.81,16.49,16.49,0,0,0,16.53,16.27c10,0,15.21-7.28,15.21-17.19H180.33V22.3"/><polyline class="cls-3" points="152.75 14.58 147.76 14.58 141.58 26.28 135.74 14.57 130.83 14.57 139.01 31.13 134.49 39.66 139.48 39.66 152.75 14.58"/><path class="cls-3" d="M264.22,18.66c3.19,0,5.44,2.74,5.44,6a5.73,5.73,0,0,1-5.53,6,6,6,0,0,1,.09-12m-5.89,14.26c0-.12.1-.11.1-.11l.17.12a10.75,10.75,0,0,0,8.23,1.61,10.34,10.34,0,0,0,7.6-10.07,10,10,0,0,0-6.31-9.63,10.28,10.28,0,0,0-9.78,1.62l0-1.6,0-.12h-4.5v24.9h4.5Z"/></g></g></svg>