<svg xmlns="http://www.w3.org/2000/svg" width="541.701" height="163.989" viewBox="0 0 541.701 163.989">
  <g id="toray_green_innovation_logo" transform="translate(-63.957 -191.341)">
    <g id="グループ_657" data-name="グループ 657" transform="translate(63.957 191.341)">
      <g id="グループ_643" data-name="グループ 643" transform="translate(0)">
        <g id="グループ_636" data-name="グループ 636">
          <path id="パス_192" data-name="パス 192" d="M116.379,223.6c-9.8,0-16.13,6.331-16.13,16.129h17.475c0,9.8-6.331,16.13-16.13,16.13H82.775v-16.13c0-19.6,12.661-32.26,32.26-32.26h13.441v-16.13h-16.13c-29.4,0-48.39,18.992-48.39,48.39v32.26h32.26c24.5,0,40.325-15.827,40.325-40.325V223.6Z" transform="translate(-63.957 -191.341)" fill="#6dad19"/>
        </g>
        <g id="グループ_637" data-name="グループ 637" transform="translate(83.338 13.441)">
          <path id="パス_193" data-name="パス 193" d="M197.994,209.057c-14.7,0-24.2,9.5-24.2,24.2v43.014h16.13V233.252c0-7.35,4.748-12.1,12.1-12.1h4.033v-12.1Z" transform="translate(-173.799 -209.057)" fill="#6dad19"/>
        </g>
        <g id="グループ_639" data-name="グループ 639" transform="translate(119.631 13.441)">
          <g id="グループ_638" data-name="グループ 638">
            <path id="パス_194" data-name="パス 194" d="M278.089,237.282c0-17.147-11.079-28.225-28.227-28.225s-28.228,11.079-28.228,28.228v6.721c0,19.6,12.661,32.26,32.26,32.26h16.13v-12.1h-12.1c-12.249,0-20.162-6.067-20.162-15.458h40.325Zm-16.13-.669H237.764v-3.36c0-7.349,4.748-12.1,12.1-12.1s12.1,4.749,12.1,12.1Z" transform="translate(-221.634 -209.057)" fill="#6dad19"/>
          </g>
        </g>
        <g id="グループ_641" data-name="グループ 641" transform="translate(185.495 13.441)">
          <g id="グループ_640" data-name="グループ 640">
            <path id="パス_195" data-name="パス 195" d="M364.9,237.282c0-17.147-11.079-28.225-28.227-28.225s-28.228,11.079-28.228,28.228v6.721c0,19.6,12.661,32.26,32.26,32.26h16.13v-12.1h-12.1c-12.249,0-20.162-6.067-20.162-15.458H364.9Zm-16.13-.669H324.575v-3.36c0-7.349,4.748-12.1,12.1-12.1s12.1,4.749,12.1,12.1Z" transform="translate(-308.445 -209.057)" fill="#6dad19"/>
          </g>
        </g>
        <g id="グループ_642" data-name="グループ 642" transform="translate(252.703 13.441)">
          <path id="パス_196" data-name="パス 196" d="M425.255,209.057c-17.148,0-28.228,9.5-28.228,24.2v43.014h16.13V233.252c0-7.349,4.748-12.1,12.1-12.1s12.1,4.749,12.1,12.1v43.014h16.13V233.252C453.481,218.554,442.4,209.057,425.255,209.057Z" transform="translate(-397.027 -209.057)" fill="#6dad19"/>
        </g>
      </g>
      <g id="グループ_656" data-name="グループ 656" transform="translate(0 56.455)">
        <rect id="長方形_15478" data-name="長方形 15478" width="16.13" height="64.52" transform="translate(0 40.325)" fill="#6794a1"/>
        <g id="グループ_644" data-name="グループ 644" transform="translate(26.884 37.637)">
          <path id="パス_197" data-name="パス 197" d="M127.617,315.357c-17.148,0-28.227,9.5-28.227,24.195v43.014h16.13V339.552c0-7.349,4.748-12.1,12.1-12.1s12.1,4.748,12.1,12.1v43.013h16.13V339.552C155.843,324.853,144.765,315.357,127.617,315.357Z" transform="translate(-99.39 -315.357)" fill="#6794a1"/>
        </g>
        <g id="グループ_645" data-name="グループ 645" transform="translate(94.092 37.637)">
          <path id="パス_198" data-name="パス 198" d="M216.2,315.357c-17.148,0-28.228,9.5-28.228,24.195v43.014H204.1V339.552c0-7.349,4.748-12.1,12.1-12.1s12.1,4.748,12.1,12.1v43.013h16.13V339.552C244.426,324.853,233.347,315.357,216.2,315.357Z" transform="translate(-187.972 -315.357)" fill="#6794a1"/>
        </g>
        <g id="グループ_647" data-name="グループ 647" transform="translate(161.3 37.637)">
          <g id="グループ_646" data-name="グループ 646" transform="translate(0)">
            <path id="パス_199" data-name="パス 199" d="M304.783,315.357c-17.149,0-28.228,11.079-28.228,28.227v13.442c0,17.148,11.079,28.228,28.228,28.228s28.227-11.079,28.227-28.228V343.584C333.01,326.436,321.931,315.357,304.783,315.357Zm12.1,45.7c0,7.35-4.749,12.1-12.1,12.1s-12.1-4.748-12.1-12.1V339.552c0-7.35,4.748-12.1,12.1-12.1s12.1,4.748,12.1,12.1Z" transform="translate(-276.555 -315.357)" fill="#6794a1"/>
          </g>
        </g>
        <g id="グループ_648" data-name="グループ 648" transform="translate(220.335 40.325)">
          <path id="パス_200" data-name="パス 200" d="M403.556,318.9l-16.822,51.775L369.911,318.9H354.365l20.963,64.52h22.811L419.1,318.9Z" transform="translate(-354.365 -318.9)" fill="#6794a1"/>
        </g>
        <g id="グループ_650" data-name="グループ 650" transform="translate(287.652 37.637)">
          <g id="グループ_649" data-name="グループ 649">
            <path id="パス_201" data-name="パス 201" d="M471.318,315.357c-17.148,0-28.228,11.079-28.228,28.227v17.475c0,14.7,9.5,24.2,24.2,24.2,7.039,0,12.633-2.624,16.13-7.171v4.481h16.13v-38.98C499.546,326.436,488.467,315.357,471.318,315.357Zm12.1,45.7c0,7.35-4.748,12.1-12.1,12.1s-12.1-4.748-12.1-12.1V339.552c0-7.349,4.748-12.1,12.1-12.1s12.1,4.748,12.1,12.1Z" transform="translate(-443.09 -315.357)" fill="#6794a1"/>
          </g>
        </g>
        <path id="パス_202" data-name="パス 202" d="M559.9,313.763H547.8V297.64h-4.033c-7.35,0-12.1,4.748-12.1,12.1V378.29H547.8V325.86h12.1Z" transform="translate(-176.812 -273.445)" fill="#6794a1"/>
        <g id="グループ_652" data-name="グループ 652" transform="translate(391.154)">
          <g id="グループ_651" data-name="グループ 651" transform="translate(0)">
            <path id="パス_203" data-name="パス 203" d="M595.638,265.75c-9.8,0-16.13,6.331-16.13,16.13v8.065h8.065c9.8,0,16.13-6.331,16.13-16.13V265.75Z" transform="translate(-579.508 -265.75)" fill="#6dad19"/>
          </g>
          <rect id="長方形_15479" data-name="長方形 15479" width="16.13" height="64.52" transform="translate(0 40.325)" fill="#6794a1"/>
        </g>
        <g id="グループ_654" data-name="グループ 654" transform="translate(418.037 37.637)">
          <g id="グループ_653" data-name="グループ 653">
            <path id="パス_204" data-name="パス 204" d="M643.168,315.357c-17.148,0-28.227,11.079-28.227,28.227v13.442c0,17.148,11.079,28.228,28.228,28.228S671.4,374.174,671.4,357.026V343.584C671.4,326.436,660.317,315.357,643.168,315.357Zm12.1,45.7c0,7.35-4.748,12.1-12.1,12.1s-12.1-4.748-12.1-12.1V339.552c0-7.35,4.748-12.1,12.1-12.1s12.1,4.748,12.1,12.1Z" transform="translate(-614.941 -315.357)" fill="#6794a1"/>
          </g>
        </g>
        <g id="グループ_655" data-name="グループ 655" transform="translate(485.246 37.637)">
          <path id="パス_205" data-name="パス 205" d="M731.751,315.357c-17.148,0-28.227,9.5-28.227,24.195v43.014h16.129V339.552c0-7.349,4.749-12.1,12.1-12.1s12.1,4.748,12.1,12.1v43.013h16.13V339.552C759.977,324.853,748.9,315.357,731.751,315.357Z" transform="translate(-703.524 -315.357)" fill="#6794a1"/>
        </g>
      </g>
    </g>
  </g>
</svg>
