<svg xmlns="http://www.w3.org/2000/svg" width="491" height="202.476" viewBox="0 0 491 202.476">
  <g id="toray_life_innovation_logo" transform="translate(-100.241 -165.826)">
    <g id="グループ_664" data-name="グループ 664" transform="translate(100.241 165.826)">
      <g id="グループ_659" data-name="グループ 659" transform="translate(0 1.088)">
        <path id="パス_206" data-name="パス 206" d="M102.367,260.861V167.243h14.152v93.618Z" transform="translate(-100.734 -167.243)" fill="#ed6b00"/>
        <path id="パス_207" data-name="パス 207" d="M117.659,313.5a8.654,8.654,0,0,1-8.775,8.642,8.461,8.461,0,0,1-8.643-8.642,8.709,8.709,0,1,1,17.418,0Z" transform="translate(-100.241 -199.132)" fill="#ed6b00"/>
      </g>
      <g id="グループ_663" data-name="グループ 663" transform="translate(1.633)">
        <g id="グループ_660" data-name="グループ 660" transform="translate(26.674)">
          <path id="パス_208" data-name="パス 208" d="M139.219,269.409V204.094H153.37v65.315Z" transform="translate(-137.588 -174.702)" fill="#878c8e"/>
          <path id="パス_209" data-name="パス 209" d="M154.508,174.6a8.653,8.653,0,0,1-8.773,8.643A8.46,8.46,0,0,1,137.1,174.6a8.706,8.706,0,1,1,17.412,0Z" transform="translate(-137.096 -165.826)" fill="#878c8e"/>
        </g>
        <path id="パス_210" data-name="パス 210" d="M198.549,178.434a12.664,12.664,0,0,1,3.645.458v-12.68a31.987,31.987,0,0,0-5-.383c-12.251,0-21.126,7.131-21.126,23.429v71.276h13.5v-53.34h12.627V195.218H189.567v-6.726C189.567,181.618,192.952,178.434,198.549,178.434Z" transform="translate(-119.462 -165.827)" fill="#878c8e"/>
        <path id="パス_211" data-name="パス 211" d="M266.4,241.321V227.5c0-15.15-9.863-24.826-25.038-24.826S216.32,212.354,216.32,227.5v17.709c0,15.15,9.863,24.955,25.037,24.955,14.273,0,23.846-8.676,24.932-22.316H251.984c-.967,6.077-4.693,9.8-10.562,9.8-6.876,0-10.949-5.093-10.949-13.112v-3.217ZM241.421,215.2c6.875,0,10.822,5.22,10.822,13.114v2.126H230.472v-2.126C230.472,220.416,234.545,215.2,241.421,215.2Z" transform="translate(-128.799 -174.374)" fill="#878c8e"/>
        <path id="パス_212" data-name="パス 212" d="M102.367,408.306V342.992h14.152v65.314Z" transform="translate(-102.367 -206.92)" fill="#878c8e"/>
        <path id="パス_213" data-name="パス 213" d="M167.387,341.574c-7.814,0-12.281,3.821-14.017,7.257v-6.168H139.219v65.314H153.37V366.06c0-7,4.226-11.968,10.118-11.968,6.4,0,9.476,4.584,9.476,11.84v42.044h14.151V364.365C187.115,349.852,179.177,341.574,167.387,341.574Z" transform="translate(-110.915 -206.591)" fill="#878c8e"/>
        <path id="パス_214" data-name="パス 214" d="M244.49,341.574c-7.816,0-12.281,3.821-14.018,7.257v-6.168H216.32v65.314h14.152V366.06c0-7,4.226-11.968,10.118-11.968,6.4,0,9.476,4.584,9.476,11.84v42.044h14.152V364.365C264.219,349.852,256.279,341.574,244.49,341.574Z" transform="translate(-128.799 -206.591)" fill="#878c8e"/>
        <path id="パス_215" data-name="パス 215" d="M318.46,341.574c-15.174,0-25.036,9.677-25.036,24.826v17.709c0,15.153,9.863,24.957,25.036,24.957s25.038-9.8,25.038-24.957V366.4C343.5,351.251,333.634,341.574,318.46,341.574Zm10.886,41.86c0,8.022-3.946,13.114-10.822,13.114s-10.95-5.092-10.95-13.114V367.206c0-7.893,4.074-13.114,10.95-13.114s10.822,5.22,10.822,13.114Z" transform="translate(-146.683 -206.591)" fill="#878c8e"/>
        <path id="パス_216" data-name="パス 216" d="M402.836,342.992l-12.019,44.853L378.8,342.992H364.146l17.5,65.314h18.338l17.5-65.314Z" transform="translate(-163.087 -206.92)" fill="#878c8e"/>
        <g id="グループ_661" data-name="グループ 661" transform="translate(257.938 134.983)">
          <path id="パス_217" data-name="パス 217" d="M463.813,341.574c-14.393,0-23.052,8.726-23.435,22.86h14.152c.124-6.972,3.008-10.885,9.146-10.885,5.889,0,8.27,4.281,8.27,10.763v2.852l-11.2,1.747c-14.5,2.282-22.541,8.729-22.541,21.217,0,11.819,8.34,18.937,18.477,18.937,7.953,0,12.188-3.357,15.268-7.386v6.3H486.1V364.926C486.1,350.546,477.948,341.574,463.813,341.574Zm8.134,44.836c0,5.615-4.25,10.68-11.237,10.68-5.342,0-8.358-2.465-8.358-7.8,0-5.886,4.112-8.079,11.511-9.313l8.084-1.371Z" transform="translate(-438.202 -341.574)" fill="#878c8e"/>
        </g>
        <path id="パス_218" data-name="パス 218" d="M541.429,348.72V336.746H528.8V316.063H515.3V379.72c0,16.3,8.873,23.429,21.124,23.429a32.005,32.005,0,0,0,5-.384V390.086a12.681,12.681,0,0,1-3.647.458c-5.6,0-8.981-3.183-8.981-10.058V348.72Z" transform="translate(-198.148 -200.674)" fill="#878c8e"/>
        <g id="グループ_662" data-name="グループ 662" transform="translate(352.97 106.681)">
          <path id="パス_219" data-name="パス 219" d="M564.059,408.306V342.992h14.15v65.314Z" transform="translate(-562.428 -313.601)" fill="#878c8e"/>
          <path id="パス_220" data-name="パス 220" d="M579.347,313.5a8.651,8.651,0,0,1-8.772,8.642,8.46,8.46,0,0,1-8.64-8.642,8.706,8.706,0,1,1,17.412,0Z" transform="translate(-561.935 -304.725)" fill="#878c8e"/>
        </g>
        <path id="パス_221" data-name="パス 221" d="M622.262,341.574c-15.174,0-25.036,9.677-25.036,24.826v17.709c0,15.153,9.863,24.957,25.036,24.957s25.038-9.8,25.038-24.957V366.4C647.3,351.251,637.437,341.574,622.262,341.574Zm10.886,41.86c0,8.022-3.947,13.114-10.822,13.114s-10.949-5.092-10.949-13.114V367.206c0-7.893,4.073-13.114,10.949-13.114s10.822,5.22,10.822,13.114Z" transform="translate(-217.15 -206.591)" fill="#878c8e"/>
        <path id="パス_222" data-name="パス 222" d="M705.331,341.574c-7.816,0-12.281,3.821-14.018,7.257v-6.168H677.161v65.314h14.152V366.06c0-7,4.226-11.968,10.118-11.968,6.4,0,9.476,4.584,9.476,11.84v42.044h14.151V364.365C725.059,349.852,717.119,341.574,705.331,341.574Z" transform="translate(-235.691 -206.591)" fill="#878c8e"/>
      </g>
    </g>
  </g>
</svg>
